<mxfile host="app.diagrams.net" modified="2021-07-07T09:09:05.633Z" agent="5.0 (Macintosh)" etag="os_MoDB2SgwEZRix9ocO" version="14.8.3" type="github">
  <diagram id="-g8JiTi-hbPS5_hK-UYM" name="Page-1">
    <mxGraphModel dx="1426" dy="792" grid="1" gridSize="10" guides="1" tooltips="1" connect="1" arrows="1" fold="1" page="1" pageScale="1" pageWidth="850" pageHeight="1100" math="0" shadow="0">
      <root>
        <mxCell id="0" />
        <mxCell id="1" parent="0" />
        <mxCell id="UF7QF8glXaiODR8iPMHw-26" value="" style="html=1;shadow=0;dashed=0;align=center;verticalAlign=middle;shape=mxgraph.arrows2.bendArrow;dy=7.5;dx=34;notch=0;arrowHead=55;rounded=0;rotation=0;flipH=1;fillColor=#e1d5e7;strokeColor=#9673a6;" vertex="1" parent="1">
          <mxGeometry x="280" y="160" width="380" height="210" as="geometry" />
        </mxCell>
        <mxCell id="UF7QF8glXaiODR8iPMHw-22" value="" style="shape=singleArrow;whiteSpace=wrap;html=1;verticalAlign=middle;arrowWidth=0.43333333333333335;arrowSize=0.09142857142857143;fillColor=#e1d5e7;strokeColor=#9673a6;" vertex="1" parent="1">
          <mxGeometry x="230" y="370" width="360" height="60" as="geometry" />
        </mxCell>
        <mxCell id="UF7QF8glXaiODR8iPMHw-2" value="Entwicklerteam" style="text;html=1;align=center;verticalAlign=middle;resizable=0;points=[];autosize=1;strokeColor=none;fontStyle=1" vertex="1" parent="1">
          <mxGeometry x="120" y="100" width="100" height="20" as="geometry" />
        </mxCell>
        <mxCell id="UF7QF8glXaiODR8iPMHw-3" value="Adminstratorenteam" style="text;html=1;align=center;verticalAlign=middle;resizable=0;points=[];autosize=1;strokeColor=none;fontStyle=1" vertex="1" parent="1">
          <mxGeometry x="575" y="100" width="130" height="20" as="geometry" />
        </mxCell>
        <mxCell id="UF7QF8glXaiODR8iPMHw-4" value="Source-code control" style="rounded=0;whiteSpace=wrap;html=1;fillColor=#ffe6cc;strokeColor=#d79b00;" vertex="1" parent="1">
          <mxGeometry x="110" y="370" width="120" height="60" as="geometry" />
        </mxCell>
        <mxCell id="UF7QF8glXaiODR8iPMHw-5" value="Build Docker Image" style="rounded=0;whiteSpace=wrap;html=1;fillColor=#ffe6cc;strokeColor=#d79b00;" vertex="1" parent="1">
          <mxGeometry x="263.44" y="370" width="120" height="60" as="geometry" />
        </mxCell>
        <mxCell id="UF7QF8glXaiODR8iPMHw-6" value="&lt;div align=&quot;left&quot;&gt;Dev-Environment&lt;/div&gt;" style="rounded=1;whiteSpace=wrap;html=1;align=left;verticalAlign=top;fillColor=#fff2cc;strokeColor=#d6b656;" vertex="1" parent="1">
          <mxGeometry x="55" y="140" width="230" height="180" as="geometry" />
        </mxCell>
        <mxCell id="UF7QF8glXaiODR8iPMHw-8" value="Code" style="rounded=0;whiteSpace=wrap;html=1;verticalAlign=middle;" vertex="1" parent="1">
          <mxGeometry x="175" y="170" width="90" height="30" as="geometry" />
        </mxCell>
        <mxCell id="UF7QF8glXaiODR8iPMHw-9" value="Run" style="rounded=0;whiteSpace=wrap;html=1;verticalAlign=middle;" vertex="1" parent="1">
          <mxGeometry x="175" y="200" width="90" height="30" as="geometry" />
        </mxCell>
        <mxCell id="UF7QF8glXaiODR8iPMHw-10" value="Validate" style="rounded=0;whiteSpace=wrap;html=1;verticalAlign=middle;" vertex="1" parent="1">
          <mxGeometry x="175" y="230" width="90" height="30" as="geometry" />
        </mxCell>
        <mxCell id="UF7QF8glXaiODR8iPMHw-11" value="Debug" style="rounded=0;whiteSpace=wrap;html=1;verticalAlign=middle;" vertex="1" parent="1">
          <mxGeometry x="175" y="260" width="90" height="30" as="geometry" />
        </mxCell>
        <mxCell id="UF7QF8glXaiODR8iPMHw-12" value="" style="html=1;shadow=0;dashed=0;align=center;verticalAlign=middle;shape=mxgraph.arrows2.uTurnArrow;dy=11;arrowHead=43;dx2=28.25;" vertex="1" parent="1">
          <mxGeometry x="68" y="160" width="100" height="130" as="geometry" />
        </mxCell>
        <mxCell id="UF7QF8glXaiODR8iPMHw-13" value="CI" style="ellipse;whiteSpace=wrap;html=1;verticalAlign=middle;fillColor=#dae8fc;strokeColor=#6c8ebf;" vertex="1" parent="1">
          <mxGeometry x="353.44" y="350" width="60" height="40" as="geometry" />
        </mxCell>
        <mxCell id="UF7QF8glXaiODR8iPMHw-14" value="Docker Registry" style="rounded=0;whiteSpace=wrap;html=1;verticalAlign=middle;fillColor=#f5f5f5;strokeColor=#666666;fontColor=#333333;" vertex="1" parent="1">
          <mxGeometry x="365" y="250" width="120" height="60" as="geometry" />
        </mxCell>
        <mxCell id="UF7QF8glXaiODR8iPMHw-15" value="&lt;div align=&quot;left&quot;&gt;Code Push&lt;br&gt;&lt;/div&gt;" style="endArrow=classic;html=1;exitX=0.5;exitY=1;exitDx=0;exitDy=0;entryX=0.5;entryY=0;entryDx=0;entryDy=0;" edge="1" parent="1" source="UF7QF8glXaiODR8iPMHw-6" target="UF7QF8glXaiODR8iPMHw-4">
          <mxGeometry width="50" height="50" relative="1" as="geometry">
            <mxPoint x="430" y="430" as="sourcePoint" />
            <mxPoint x="480" y="380" as="targetPoint" />
          </mxGeometry>
        </mxCell>
        <mxCell id="UF7QF8glXaiODR8iPMHw-16" value="docker push" style="endArrow=classic;startArrow=classic;html=1;exitX=0.5;exitY=0;exitDx=0;exitDy=0;entryX=0;entryY=0.5;entryDx=0;entryDy=0;" edge="1" parent="1" source="UF7QF8glXaiODR8iPMHw-5" target="UF7QF8glXaiODR8iPMHw-14">
          <mxGeometry width="50" height="50" relative="1" as="geometry">
            <mxPoint x="430" y="430" as="sourcePoint" />
            <mxPoint x="480" y="380" as="targetPoint" />
          </mxGeometry>
        </mxCell>
        <mxCell id="UF7QF8glXaiODR8iPMHw-17" value="Deploy" style="rounded=0;whiteSpace=wrap;html=1;verticalAlign=middle;fillColor=#ffe6cc;strokeColor=#d79b00;" vertex="1" parent="1">
          <mxGeometry x="420" y="370" width="120" height="60" as="geometry" />
        </mxCell>
        <mxCell id="UF7QF8glXaiODR8iPMHw-18" value="CD" style="ellipse;whiteSpace=wrap;html=1;verticalAlign=middle;fillColor=#dae8fc;strokeColor=#6c8ebf;" vertex="1" parent="1">
          <mxGeometry x="515" y="350" width="60" height="40" as="geometry" />
        </mxCell>
        <mxCell id="UF7QF8glXaiODR8iPMHw-19" value="Run, Manage" style="rounded=0;whiteSpace=wrap;html=1;verticalAlign=middle;fillColor=#ffe6cc;strokeColor=#d79b00;" vertex="1" parent="1">
          <mxGeometry x="585" y="370" width="120" height="60" as="geometry" />
        </mxCell>
        <mxCell id="UF7QF8glXaiODR8iPMHw-20" value="Monitor and Diagnose" style="rounded=0;whiteSpace=wrap;html=1;verticalAlign=middle;fillColor=#ffe6cc;strokeColor=#d79b00;" vertex="1" parent="1">
          <mxGeometry x="585" y="230" width="120" height="60" as="geometry" />
        </mxCell>
        <mxCell id="UF7QF8glXaiODR8iPMHw-23" value="" style="endArrow=classic;html=1;exitX=0.7;exitY=1.017;exitDx=0;exitDy=0;exitPerimeter=0;entryX=0.5;entryY=0;entryDx=0;entryDy=0;" edge="1" parent="1" source="UF7QF8glXaiODR8iPMHw-14" target="UF7QF8glXaiODR8iPMHw-17">
          <mxGeometry width="50" height="50" relative="1" as="geometry">
            <mxPoint x="470" y="430" as="sourcePoint" />
            <mxPoint x="520" y="380" as="targetPoint" />
          </mxGeometry>
        </mxCell>
        <mxCell id="UF7QF8glXaiODR8iPMHw-24" value="" style="endArrow=classic;html=1;entryX=1;entryY=0.5;entryDx=0;entryDy=0;exitX=0;exitY=0;exitDx=0;exitDy=0;" edge="1" parent="1" source="UF7QF8glXaiODR8iPMHw-14" target="UF7QF8glXaiODR8iPMHw-6">
          <mxGeometry width="50" height="50" relative="1" as="geometry">
            <mxPoint x="360" y="280" as="sourcePoint" />
            <mxPoint x="520" y="380" as="targetPoint" />
          </mxGeometry>
        </mxCell>
        <mxCell id="UF7QF8glXaiODR8iPMHw-28" value="https://docs.microsoft.com/en-us/dotnet/architecture/containerized-lifecycle/docker-devops-workflow/docker-application-outer-loop-devops-workflow" style="text;html=1;align=center;verticalAlign=middle;resizable=0;points=[];autosize=1;strokeColor=none;" vertex="1" parent="1">
          <mxGeometry x="30" y="450" width="800" height="20" as="geometry" />
        </mxCell>
      </root>
    </mxGraphModel>
  </diagram>
</mxfile>
